<mxfile host="app.diagrams.net" modified="2024-11-20T03:18:39.503Z" agent="Mozilla/5.0 (Windows NT 10.0; Win64; x64) AppleWebKit/537.36 (KHTML, like Gecko) Chrome/131.0.0.0 Safari/537.36" version="24.7.1" etag="ePhuAZwtphgZ4ZUoYCnk" type="github">
  <diagram name="PÃ¡gina-1" id="NA4zuhbvQYwAM6EVyKoP">
    <mxGraphModel>
      <root>
        <mxCell id="0" />
        <mxCell id="1" parent="0" />
      </root>
    </mxGraphModel>
  </diagram>
</mxfile>
